<svg width="28" height="28" viewBox="0 0 28 28" fill="none" xmlns="http://www.w3.org/2000/svg">
<g clip-path="url(#clip0_54_9962)">
<path d="M0 0H28V28H0V0Z" fill="#EEEEEE"/>
<path d="M18.8672 14C18.8672 15.2195 16.6906 18.2656 14 18.2656C11.3094 18.2656 9.13281 15.2195 9.13281 14C9.13281 12.7091 9.6456 11.4712 10.5584 10.5584C11.4712 9.6456 12.7091 9.13281 14 9.13281C15.2909 9.13281 16.5288 9.6456 17.4416 10.5584C18.3544 11.4712 18.8672 12.7091 18.8672 14Z" fill="#D80027"/>
<path d="M18.8672 14C18.8672 15.2909 18.3544 16.5288 17.4416 17.4416C16.5288 18.3544 15.2909 18.8672 14 18.8672C12.7091 18.8672 11.4712 18.3544 10.5584 17.4416C9.6456 16.5288 9.13281 15.2909 9.13281 14" fill="#0052B4"/>
<path d="M19.1623 18.3039L20.4584 17.0133L21.317 17.8719L20.0263 19.1625L19.1623 18.3039ZM17.0131 20.4586L18.3037 19.1625L19.1623 20.0266L17.8717 21.3172L17.0131 20.4586ZM21.749 20.8852L23.0396 19.5945L23.8982 20.4531L22.6076 21.7492L21.749 20.8852ZM19.5943 23.0398L20.8849 21.7492L21.749 22.6078L20.4529 23.8984L19.5943 23.0398ZM20.4584 19.5945L21.749 18.3039L22.6076 19.1625L21.317 20.4586L20.4584 19.5945ZM18.3037 21.7492L19.5943 20.4586L20.4584 21.3172L19.1623 22.6078L18.3037 21.7492ZM21.749 9.69608L18.3037 6.25077L19.1677 5.39217L22.6131 8.83749L21.749 9.69608ZM18.3037 8.83749L17.0131 7.54139L17.8717 6.6828L19.1677 7.97342L18.3037 8.83749ZM20.4584 10.9867L19.1623 9.69608L20.0263 8.83749L21.317 10.1281L20.4584 10.9867ZM20.8849 6.25077L19.5943 4.96014L20.4529 4.10155L21.749 5.39217L20.8849 6.25077ZM23.0396 8.40546L21.749 7.10936L22.6076 6.2453L23.8982 7.54686L23.0396 8.40546ZM4.95993 19.5945L8.40524 23.0398L7.54118 23.8984L4.09587 20.4531L4.95993 19.5945ZM8.40524 20.4531L9.69587 21.7492L8.83727 22.6078L7.54118 21.3172L8.40524 20.4531ZM6.25055 18.3039L7.54118 19.5945L6.68259 20.4586L5.39196 19.1625L6.25055 18.3039ZM7.54118 17.0133L10.9865 20.4586L10.1279 21.3172L6.68259 17.8719L7.54118 17.0133ZM8.40524 4.96014L4.95993 8.40546L4.10133 7.54139L7.54665 4.09608L8.40524 4.96014ZM9.69587 6.25077L6.25055 9.69608L5.39196 8.83202L8.83727 5.3867L9.69587 6.25077ZM10.9865 7.54139L7.54118 10.9867L6.68259 10.1281L10.1279 6.6828L10.9865 7.54139Z" fill="#333333"/>
</g>
<defs>
<clipPath id="clip0_54_9962">
<rect width="28" height="28" rx="14" fill="white"/>
</clipPath>
</defs>
</svg>
