<svg width="13" height="21" viewBox="0 0 13 21" fill="none" xmlns="http://www.w3.org/2000/svg">
<path d="M12.0986 6.5257V4.62691H11.9271V2.19634C11.9271 1.36875 11.2573 0.697754 10.4317 0.697754H2.39821C1.57212 0.697754 0.902344 1.36875 0.902344 2.19634V18.5492C0.902344 19.3768 1.57212 20.0478 2.39821 20.0478H10.4312C11.2573 20.0478 11.9265 19.3768 11.9265 18.5492V8.14337H12.098V7.0216H11.9265V6.52516H12.098L12.0986 6.5257Z" stroke="#263238" stroke-width="0.387" stroke-linejoin="round"/>
<path d="M10.0715 0.940918H2.68478C1.76724 0.940918 1.02344 1.68103 1.02344 2.59401V18.151C1.02344 19.064 1.76724 19.8041 2.68478 19.8041H10.0715C10.9891 19.8041 11.7329 19.064 11.7329 18.151V2.59401C11.7329 1.68103 10.9891 0.940918 10.0715 0.940918Z" fill="#263238" stroke="#263238" stroke-width="0.774" stroke-linejoin="round"/>
<path d="M9.86972 1.06353H6.89908L6.89636 1.07438C6.80828 1.39 6.60604 1.59499 6.38204 1.59499H6.25319C6.0292 1.59499 5.82641 1.39 5.73887 1.07438L5.73616 1.06353H2.76497C1.9375 1.06353 1.2666 1.73274 1.2666 2.55813V17.4586C1.2666 18.2839 1.9375 18.9526 2.76497 18.9526H9.86972C10.6972 18.9526 11.3675 18.2834 11.3675 17.4586V2.55759C11.3675 1.73219 10.6966 1.06299 9.86972 1.06299V1.06353Z" fill="white"/>
<path d="M9.86926 1.06299H6.89877L6.89606 1.07332C6.80799 1.37383 6.60575 1.569 6.38177 1.569H6.25292C6.02894 1.569 5.82616 1.37383 5.73863 1.07332L5.73592 1.06299H2.76489C1.93746 1.06299 1.2666 1.70016 1.2666 2.48603V2.64506H11.3675V2.48603C11.3675 1.70016 10.6967 1.06299 9.8698 1.06299H9.86926Z" fill="url(#paint0_linear_21_4718)"/>
<path d="M6.37853 1.30601C6.44575 1.30601 6.50023 1.22428 6.50023 1.12347C6.50023 1.02265 6.44575 0.940918 6.37853 0.940918C6.31132 0.940918 6.25684 1.02265 6.25684 1.12347C6.25684 1.22428 6.31132 1.30601 6.37853 1.30601Z" fill="#707070"/>
<path d="M1.70073 6.09002V5.57714H4.39544V6.09002H3.35153V8.95459H2.74464V6.09002H1.70073ZM7.7832 7.26586C7.7832 7.62977 7.71503 7.94146 7.5787 8.20093C7.44347 8.4593 7.25877 8.65719 7.02459 8.79462C6.79151 8.93205 6.5271 9.00077 6.23135 9.00077C5.9356 9.00077 5.67064 8.93205 5.43646 8.79462C5.20338 8.65609 5.01868 8.45765 4.88235 8.19928C4.74712 7.93981 4.6795 7.62868 4.6795 7.26586C4.6795 6.90195 4.74712 6.59081 4.88235 6.33244C5.01868 6.07298 5.20338 5.87453 5.43646 5.7371C5.67064 5.59967 5.9356 5.53096 6.23135 5.53096C6.5271 5.53096 6.79151 5.59967 7.02459 5.7371C7.25877 5.87453 7.44347 6.07298 7.5787 6.33244C7.71503 6.59081 7.7832 6.90195 7.7832 7.26586ZM7.16807 7.26586C7.16807 7.00969 7.12794 6.79366 7.04768 6.61775C6.96852 6.44074 6.85858 6.30716 6.71785 6.217C6.57712 6.12575 6.41496 6.08013 6.23135 6.08013C6.04775 6.08013 5.88558 6.12575 5.74485 6.217C5.60413 6.30716 5.49363 6.44074 5.41337 6.61775C5.33421 6.79366 5.29464 7.00969 5.29464 7.26586C5.29464 7.52203 5.33421 7.73862 5.41337 7.91563C5.49363 8.09154 5.60413 8.22512 5.74485 8.31637C5.88558 8.40652 6.04775 8.4516 6.23135 8.4516C6.41496 8.4516 6.57712 8.40652 6.71785 8.31637C6.85858 8.22512 6.96852 8.09154 7.04768 7.91563C7.12794 7.73862 7.16807 7.52203 7.16807 7.26586ZM8.36164 8.95459V5.57714H9.62818C9.88765 5.57714 10.1053 5.62551 10.2812 5.72226C10.4583 5.81901 10.5918 5.95204 10.682 6.12135C10.7732 6.28957 10.8189 6.48087 10.8189 6.69526C10.8189 6.91185 10.7732 7.10425 10.682 7.27246C10.5907 7.44067 10.4561 7.57315 10.2779 7.6699C10.0998 7.76555 9.8805 7.81338 9.61994 7.81338H8.78052V7.31039H9.53748C9.6892 7.31039 9.81344 7.284 9.91019 7.23123C10.0069 7.17846 10.0784 7.1059 10.1246 7.01354C10.1719 6.92119 10.1955 6.8151 10.1955 6.69526C10.1955 6.57542 10.1719 6.46987 10.1246 6.37862C10.0784 6.28737 10.0064 6.21645 9.90854 6.16588C9.81179 6.11421 9.687 6.08837 9.53418 6.08837H8.97347V8.95459H8.36164ZM5.53149 11.5771H6.14333V13.7837C6.14333 14.0256 6.08616 14.2383 5.97182 14.4219C5.85857 14.6055 5.69916 14.749 5.49356 14.8523C5.28797 14.9546 5.04774 15.0057 4.77289 15.0057C4.49693 15.0057 4.25615 14.9546 4.05056 14.8523C3.84497 14.749 3.68555 14.6055 3.57231 14.4219C3.45906 14.2383 3.40244 14.0256 3.40244 13.7837V11.5771H4.01428V13.7326C4.01428 13.8733 4.04506 13.9986 4.10663 14.1086C4.1693 14.2185 4.25725 14.3048 4.37049 14.3675C4.48374 14.4291 4.61787 14.4598 4.77289 14.4598C4.92791 14.4598 5.06204 14.4291 5.17528 14.3675C5.28962 14.3048 5.37757 14.2185 5.43914 14.1086C5.50071 13.9986 5.53149 13.8733 5.53149 13.7326V11.5771ZM6.80835 14.9546V11.5771H8.07489C8.33436 11.5771 8.55205 11.6255 8.72795 11.7223C8.90496 11.819 9.03854 11.952 9.1287 12.1214C9.21995 12.2896 9.26558 12.4809 9.26558 12.6953C9.26558 12.9118 9.21995 13.1042 9.1287 13.2725C9.03744 13.4407 8.90276 13.5732 8.72466 13.6699C8.54655 13.7656 8.32721 13.8134 8.06665 13.8134H7.22723V13.3104H7.98419C8.13591 13.3104 8.26015 13.284 8.3569 13.2312C8.45365 13.1785 8.52511 13.1059 8.57129 13.0135C8.61856 12.9212 8.6422 12.8151 8.6422 12.6953C8.6422 12.5754 8.61856 12.4699 8.57129 12.3786C8.52511 12.2874 8.4531 12.2165 8.35525 12.1659C8.2585 12.1142 8.13371 12.0884 7.98089 12.0884H7.42018V14.9546H6.80835Z" fill="url(#paint1_linear_21_4718)"/>
<defs>
<linearGradient id="paint0_linear_21_4718" x1="6.31707" y1="1.06299" x2="6.31707" y2="2.64506" gradientUnits="userSpaceOnUse">
<stop offset="0.338097" stop-color="#F6978A"/>
<stop offset="0.922388" stop-color="#FF6F56"/>
</linearGradient>
<linearGradient id="paint1_linear_21_4718" x1="6.2666" y1="4.95459" x2="6.2666" y2="15.9546" gradientUnits="userSpaceOnUse">
<stop offset="0.199478" stop-color="#FF7D6C"/>
<stop offset="0.84353" stop-color="#FF2D07"/>
</linearGradient>
</defs>
</svg>
