<svg width="20" height="20" viewBox="0 0 20 20" fill="none" xmlns="http://www.w3.org/2000/svg">
<path d="M18.333 7.90846H14.3413L10.6913 2.4418C10.533 2.20846 10.2663 2.0918 9.99967 2.0918C9.73301 2.0918 9.46634 2.20846 9.30801 2.45013L5.65801 7.90846H1.66634C1.20801 7.90846 0.833008 8.28346 0.833008 8.7418C0.833008 8.8168 0.841341 8.8918 0.866341 8.9668L2.98301 16.6918C3.17467 17.3918 3.81634 17.9085 4.58301 17.9085H15.4163C16.183 17.9085 16.8247 17.3918 17.0247 16.6918L19.1413 8.9668L19.1663 8.7418C19.1663 8.28346 18.7913 7.90846 18.333 7.90846ZM9.99967 4.40846L12.333 7.90846H7.66634L9.99967 4.40846ZM15.4163 16.2418L4.59134 16.2501L2.75801 9.57513H17.2497L15.4163 16.2418ZM9.99967 11.2418C9.08301 11.2418 8.33301 11.9918 8.33301 12.9085C8.33301 13.8251 9.08301 14.5751 9.99967 14.5751C10.9163 14.5751 11.6663 13.8251 11.6663 12.9085C11.6663 11.9918 10.9163 11.2418 9.99967 11.2418Z" fill="#DB3D42"/>
</svg>
