<svg width="32" height="32" viewBox="0 0 32 32" fill="none" xmlns="http://www.w3.org/2000/svg">
<g filter="url(#filter0_d_54_9963)">
<g clip-path="url(#clip0_54_9963)">
<mask id="mask0_54_9963" style="mask-type:alpha" maskUnits="userSpaceOnUse" x="2" y="2" width="28" height="28">
<rect x="2" y="2" width="28" height="28" rx="14" fill="#F9FAFB"/>
</mask>
<g mask="url(#mask0_54_9963)">
<path d="M2 16L16 2H30V5.04609L28.868 6.93281L30 8.69375V12.3469L28.8406 14.1352L30 16V19.6531L28.6875 21.3867L30 23.3062V26.9539L15.8305 28.5016L2 26.9539V23.3062L3.48203 21.4852L2 19.6531V16Z" fill="#EEEEEE"/>
<path d="M16 16L30 16V12.3469L14.9555 12.3469L16 16ZM14.9555 8.69375L30 8.69375V5.04609H14.9555V8.69375ZM30 30V26.9539H2V30H30ZM2 23.3062H30V19.6531H2V23.3062Z" fill="#D80027"/>
<path d="M2 2H16V16L2 16V2Z" fill="#0052B4"/>
<path d="M2.82031 2.79297L2.37734 4.1875H0.90625L2.09297 5.05156L1.63906 6.44609L2.82031 5.58203L4.00156 6.44609L3.55313 5.05703L4.74531 4.1875H3.27969L2.82031 2.79297ZM7.84063 2.79297L7.38672 4.1875H5.92109L7.10781 5.05156L6.65391 6.44609L7.84063 5.58203L9.02734 6.44609L8.57344 5.05703L9.76562 4.1875H8.3L7.84063 2.79297ZM12.8664 2.79297L12.4125 4.19297H10.9469L12.1336 5.05703L11.6797 6.45156L12.8664 5.5875L14.0477 6.44609L13.5992 5.0625L14.7859 4.1875H13.3203L12.8664 2.79297ZM2.82031 6.87812L2.36641 8.27266H0.90625L2.09297 9.13672L1.63906 10.5312L2.82031 9.65625L4.00156 10.5148L3.55313 9.13125L4.73984 8.25625H3.27969L2.82031 6.87812ZM7.84063 6.87812L7.38672 8.27266H5.92656L7.11328 9.13672L6.65937 10.5312L7.84609 9.66719L9.02734 10.5258L8.57891 9.14219L9.76562 8.26719H8.3L7.84063 6.87812ZM12.8609 6.87812L12.407 8.27266H10.9414L12.1281 9.13672L11.6742 10.5312L12.8609 9.66719L14.0422 10.5258L13.5938 9.14219L14.7805 8.26719H13.3203L12.8609 6.87812ZM2.82031 10.9469L2.36641 12.3414H0.90625L2.0875 13.2109L1.63359 14.6055L2.82031 13.7359L4.00703 14.6L3.55313 13.2109L4.73984 12.3414H3.27422L2.82031 10.9469ZM7.84063 10.9469L7.38672 12.3414H5.92109L7.10781 13.2109L6.65391 14.6055L7.84063 13.7414L9.02734 14.6055L8.57344 13.2164L9.76016 12.3469H8.29453L7.84063 10.9469ZM12.8609 10.9469L12.407 12.3414H10.9414L12.1281 13.2055L11.6742 14.6L12.8609 13.7359L14.0477 14.6L13.5938 13.2109L14.7805 12.3414H13.3203L12.8609 10.9469Z" fill="#EEEEEE"/>
</g>
</g>
</g>
<defs>
<filter id="filter0_d_54_9963" x="0.5" y="0.5" width="31" height="31" filterUnits="userSpaceOnUse" color-interpolation-filters="sRGB">
<feFlood flood-opacity="0" result="BackgroundImageFix"/>
<feColorMatrix in="SourceAlpha" type="matrix" values="0 0 0 0 0 0 0 0 0 0 0 0 0 0 0 0 0 0 127 0" result="hardAlpha"/>
<feMorphology radius="1.5" operator="dilate" in="SourceAlpha" result="effect1_dropShadow_54_9963"/>
<feOffset/>
<feComposite in2="hardAlpha" operator="out"/>
<feColorMatrix type="matrix" values="0 0 0 0 1 0 0 0 0 1 0 0 0 0 1 0 0 0 1 0"/>
<feBlend mode="normal" in2="BackgroundImageFix" result="effect1_dropShadow_54_9963"/>
<feBlend mode="normal" in="SourceGraphic" in2="effect1_dropShadow_54_9963" result="shape"/>
</filter>
<clipPath id="clip0_54_9963">
<rect x="2" y="2" width="28" height="28" rx="14" fill="white"/>
</clipPath>
</defs>
</svg>
